<svg version="1.0" xmlns="http://www.w3.org/2000/svg" width="464" height="464" viewBox="0 0 348 348"><path d="M4 174.5V344h339V5H4v169.5zm337 0V342H6V7h335v167.5z"/><path d="M37.2 25.2c-1.7 1.7-1.7 174.9 0 176.6 1.7 1.7 56.9 1.7 58.6 0 1.7-1.7 1.7-174.9 0-176.6-1.7-1.7-56.9-1.7-58.6 0zM93 113.5V199H40V28h53v85.5z"/><path d="M65.5 41c-.4.6-.3 34.1.1 74.5.6 64.3.9 73.5 2.2 73.5 1.3 0 1.4-8.5.8-73.8-.4-40.5-1.1-74.1-1.6-74.5-.4-.5-1.1-.4-1.5.3zm229-16c-4.6 1-7.9 3.5-10.3 7.9-5.6 9.8.4 21.5 11.9 23.6 7.2 1.3 16.8-5.3 18.4-12.6 2.5-11.1-8.5-21.5-20-18.9zm11.4 3.9c9.5 6.7 9 18.7-1 23.9-9.7 5.1-20.9-1.4-20.9-12.1 0-6.7 3.1-10.9 9.7-13.2 4.4-1.5 8.8-1 12.2 1.4zM121.2 40.2c-1.7 1.7-1.7 156.9 0 158.6 1.7 1.7 144.9 1.7 146.6 0 1.7-1.7 1.7-156.9 0-158.6-1.7-1.7-144.9-1.7-146.6 0zM265 119.5V196H124V43h141v76.5z"/><path d="M188.7 50.7c-.4.3-.7 6.4-.7 13.5V77h-20.5c-17.6 0-20.5.2-20.5 1.5s2.9 1.5 20.5 1.5H188v41.6l-4.2 1.1c-2.4.7-6.2 2.8-8.5 4.7-14.5 12.5-11.7 37.4 5.1 45.5 9 4.4 21 2 27.7-5.7 5.4-6.1 7.2-11.3 6.8-20.1-.3-6.5-.9-8.5-3.4-12.6-3.9-6.3-9.3-10.5-15.2-12l-4.8-1.2-.3-20.2L191 81h23.5c20.1 0 23.5-.2 23.5-1.5 0-1.2-3.5-1.5-23.2-1.7l-23.3-.3-.3-13.8c-.2-12.6-.7-14.9-2.5-13zM188 138c0 10.9.2 13 1.5 13s1.5-2.1 1.5-13v-13h2.5c6.4 0 15.5 7.8 17.5 15 1.3 4.5 1.3 12.5 0 17-1.3 4.7-6.3 10.6-11.1 13-5.1 2.7-13.7 2.7-18.8 0-4.8-2.4-9.8-8.3-11.1-13-.6-1.9-1-5.8-1-8.5 0-6.9 1.4-11.4 5.1-15.8 3.2-3.9 9.1-7.6 12.2-7.7 1.5 0 1.7 1.3 1.7 13zM49.2 215.2c-1.7 1.7-1.7 36.9 0 38.6 1.7 1.7 78.9 1.7 80.6 0 1.7-1.7 1.7-36.9 0-38.6-1.7-1.7-78.9-1.7-80.6 0zm77.8 19.3V251H52v-33h75v16.5z"/><path d="M62 235.2c0 1.2 2.5 1.6 13.7 2.1 7.5.4 19.4.7 26.5.7 10.7 0 12.8-.2 12.8-1.5s-2.1-1.5-12.8-1.5c-7.1 0-19-.3-26.5-.7-11.8-.5-13.7-.4-13.7.9zm87.2-18c-.8.8-1.2 6.6-1.2 19.3 0 12.7.4 18.5 1.2 19.3 1.7 1.7 71.9 1.7 73.6 0 1.7-1.7 1.7-36.9 0-38.6-1.7-1.7-71.9-1.7-73.6 0zm70.8 19.3V253h-68v-33h68v16.5z"/><path d="M164.2 236.2c.4 1 6 1.4 21.9 1.8 11.8.3 21.6.4 21.8.3.2-.1.1-.9-.2-1.8-.6-1.3-3.7-1.5-22.3-1.5-16.8 0-21.5.3-21.2 1.2zm76-18c-1.7 1.7-1.7 37.9 0 39.6 1.7 1.7 66.9 1.7 68.6 0 1.7-1.7 1.7-37.9 0-39.6-1.7-1.7-66.9-1.7-68.6 0zM306 238v17h-63v-34h63v17z"/><path d="M253 237.4c0 1.8 2 2.1 18 3.6 6.3.6 13.4 1.3 15.8 1.6 3.3.4 4.2.2 4.2-1 0-1.6-1.7-2-20-3.6-6.3-.6-13-1.3-14.7-1.6-2.5-.4-3.3-.1-3.3 1zM48.2 267.2c-1.7 1.7-1.7 40.9 0 42.6 1.7 1.7 80.9 1.7 82.6 0 1.7-1.7 1.7-40.9 0-42.6-1.7-1.7-80.9-1.7-82.6 0zm79.8 21.3V307H51v-37h77v18.5z"/><path d="M59 287.5c0 1.3 3.3 1.5 23.5 1.5s23.5-.2 23.5-1.5-3.3-1.5-23.5-1.5-23.5.2-23.5 1.5zm93.2-18.3c-1.7 1.7-1.7 37.9 0 39.6 1.7 1.7 68.9 1.7 70.6 0 1.7-1.7 1.7-37.9 0-39.6-1.7-1.7-68.9-1.7-70.6 0zM220 289v17h-65v-34h65v17z"/><path d="M172.7 287.7c-2 1.9 1 2.3 19.3 2.3 17.1 0 20-.2 20-1.5s-2.8-1.5-19.3-1.5c-10.7 0-19.7.3-20 .7zm70.5-14.5c-.8.8-1.2 6.3-1.2 18.3s.4 17.5 1.2 18.3c1.7 1.7 62.9 1.7 64.6 0 1.7-1.7 1.7-34.9 0-36.6-1.7-1.7-62.9-1.7-64.6 0zm61.8 18.3V307h-59v-31h59v15.5z"/><path d="M255.2 287.7c-6 .3-8.2.7-7.9 1.6.4 1.3 2.6 1.3 31.2.9 13-.2 15.5-.4 15.5-1.7 0-1.3-2.3-1.5-15.2-1.3-8.4.1-19 .4-23.6.5z"/></svg>